<svg width="67" height="24" viewBox="0 0 67 24" fill="none" xmlns="http://www.w3.org/2000/svg">
<path fill-rule="evenodd" clip-rule="evenodd" d="M23.0677 10.8939V11.5517C23.0677 11.6896 23.0659 11.8286 23.0629 11.964C22.9939 14.9338 22.1765 17.4761 20.685 19.3902C20.6221 19.4712 20.5579 19.5504 20.492 19.629C20.4279 19.7076 20.3613 19.785 20.2935 19.8606C20.184 19.9839 20.0721 20.1036 19.9565 20.2209C18.0052 22.1991 15.2316 23.2445 11.9359 23.2445C8.6401 23.2445 5.82174 22.1236 3.66955 20.0885C1.47318 18.0117 0.263672 15.1188 0.263672 11.9411C0.263672 8.76334 1.48528 5.72407 3.70343 3.62131C5.87559 1.56268 8.86337 0.428467 12.1162 0.428467H12.1803C12.1803 0.428467 12.1809 0.429071 12.1815 0.429071L12.3703 0.430885C12.4907 0.432699 12.6105 0.436326 12.7297 0.441768C12.7382 0.441768 12.7466 0.442372 12.7551 0.442977C12.8555 0.447209 12.9554 0.45265 13.0552 0.459301C13.1121 0.462928 13.169 0.467161 13.2258 0.471393C13.3009 0.477439 13.3759 0.483484 13.4509 0.49074C13.538 0.499204 13.6252 0.508273 13.7117 0.517946C13.8146 0.529433 13.9174 0.542734 14.0191 0.55664C14.0832 0.565709 14.1467 0.574778 14.2103 0.584451L14.2529 0.591101L14.2956 0.597752C14.3876 0.611657 14.4783 0.627377 14.5691 0.644305C14.6023 0.650351 14.635 0.656397 14.6677 0.663048C14.6973 0.668489 14.7264 0.67393 14.7554 0.679976L14.764 0.681565C14.7702 0.68267 14.7762 0.68376 14.7821 0.685417C14.7875 0.686022 14.7929 0.687231 14.7984 0.68844L14.8126 0.691408C14.8184 0.692587 14.8241 0.693746 14.8299 0.695091L14.8373 0.696495C14.8402 0.696985 14.843 0.697462 14.8456 0.698114L14.8637 0.701741L14.8891 0.707183C14.9164 0.712624 14.9436 0.71867 14.9708 0.724716C14.9717 0.725018 14.9728 0.725169 14.9739 0.72532C14.9749 0.725472 14.976 0.725623 14.9769 0.725925L15.0017 0.731366C15.0096 0.73318 15.0174 0.734994 15.0253 0.736203C15.0283 0.737216 15.0314 0.737805 15.0341 0.738325L15.0356 0.738621C15.0359 0.738774 15.0362 0.738888 15.0366 0.738983C15.0369 0.739076 15.0373 0.739151 15.0377 0.739226C15.0384 0.739377 15.0392 0.739528 15.0398 0.739831C15.0731 0.747086 15.1064 0.754341 15.1396 0.7622C15.1826 0.77187 15.2249 0.782144 15.2673 0.792418L15.2673 0.79242L15.2673 0.79243L15.3166 0.804518L15.3659 0.816613L15.375 0.819032L15.3841 0.82145L15.4204 0.830519L15.4264 0.83203L15.4325 0.833542L15.5099 0.853493L15.5444 0.862562C15.5517 0.86498 15.5589 0.866793 15.5662 0.868606L15.5662 0.868608C15.6031 0.878282 15.6406 0.88856 15.6775 0.898838C15.8379 0.943577 15.9964 0.99134 16.1537 1.04213L16.2148 1.06208L16.2372 1.06933H16.239L16.239 1.06934C16.2469 1.07236 16.2548 1.07538 16.2632 1.0778C16.2654 1.0784 16.2673 1.07916 16.2693 1.07991C16.2712 1.08067 16.2732 1.08142 16.2753 1.08203L16.2868 1.08566L16.3128 1.09472C16.3461 1.10561 16.3788 1.11649 16.4115 1.12858L16.4163 1.13026C16.4195 1.13134 16.4228 1.13241 16.426 1.13402C16.4375 1.13765 16.4484 1.14128 16.4599 1.14551C16.4738 1.15035 16.4877 1.15518 16.5016 1.16062L16.5016 1.16063C16.5077 1.16244 16.5137 1.16425 16.5198 1.16667L16.544 1.17574C16.5621 1.18179 16.5803 1.18844 16.5984 1.19569L16.5985 1.19571C16.6106 1.19993 16.6227 1.20416 16.6347 1.20899C16.6403 1.21085 16.6459 1.21294 16.6514 1.21498L16.6614 1.21867C16.6686 1.22108 16.6759 1.2241 16.6831 1.22712L16.6831 1.22713C16.7013 1.23318 16.7194 1.24043 16.737 1.24769C16.7382 1.24769 16.7394 1.24769 16.7406 1.2489C16.7418 1.2489 16.7424 1.2489 16.7437 1.2501C16.7518 1.25343 16.7601 1.2566 16.7685 1.25978C16.7768 1.26295 16.7851 1.26613 16.7933 1.26945C16.8205 1.27973 16.8477 1.29061 16.8756 1.3021C16.8768 1.3027 16.8774 1.3027 16.8786 1.30331C16.907 1.31419 16.9355 1.32568 16.9633 1.33717C16.973 1.34079 16.9826 1.34442 16.9917 1.34865C17.0268 1.36256 17.0613 1.37707 17.0958 1.39218L17.1006 1.3943L17.1055 1.39641C17.126 1.40488 17.1466 1.41334 17.1672 1.42241L17.1726 1.42453L17.1781 1.42664C17.1859 1.43027 17.1938 1.4339 17.2011 1.43692C17.3088 1.48348 17.4153 1.53245 17.5212 1.58202L17.5378 1.58998C17.5483 1.59495 17.5586 1.59985 17.569 1.605C17.5865 1.61286 17.604 1.62132 17.6216 1.62979H17.6222C17.6289 1.63341 17.6361 1.63704 17.6428 1.64006C17.6694 1.65276 17.6954 1.66546 17.7214 1.67876C17.7302 1.68299 17.7388 1.68737 17.7474 1.69176C17.7561 1.69614 17.7647 1.70052 17.7735 1.70476L17.7916 1.71382C17.7943 1.71503 17.7969 1.71638 17.7994 1.71774L17.7995 1.71775C17.802 1.71911 17.8046 1.72048 17.8073 1.72168L17.8121 1.72401C17.8151 1.72542 17.8179 1.72675 17.8207 1.72833C17.8781 1.75796 17.9356 1.78758 17.9925 1.81781C18.0318 1.83837 18.0699 1.85893 18.1087 1.88009L18.2357 1.95082C18.341 2.01007 18.4457 2.07174 18.5491 2.13462C18.652 2.1975 18.7543 2.26219 18.8553 2.32869L18.8553 2.3287C18.8583 2.33051 18.8614 2.33232 18.8644 2.33474C18.9309 2.37827 18.9969 2.4224 19.0622 2.46775C19.1294 2.5137 19.1953 2.56085 19.2613 2.60862C19.392 2.70293 19.5203 2.80088 19.6467 2.90124C19.6473 2.90184 19.6485 2.90245 19.6491 2.90305C19.9462 3.13884 20.2306 3.39096 20.5035 3.65939C19.3194 4.92238 18.4469 6.43446 17.9229 8.10434C17.8285 7.97616 17.7251 7.8359 17.6119 7.68354C17.6119 7.68354 17.6119 7.68294 17.6113 7.68294C17.5726 7.62973 17.5333 7.57774 17.4933 7.52635C17.4782 7.5064 17.4625 7.48645 17.4467 7.4665L17.4231 7.43687L17.3995 7.40725C17.3941 7.39999 17.3886 7.39274 17.3826 7.38548C17.3457 7.33893 17.3088 7.29298 17.2707 7.24824C17.2567 7.23071 17.2422 7.21378 17.2277 7.19685C17.2132 7.17932 17.1987 7.16239 17.1841 7.14606C17.1547 7.1116 17.1248 7.07766 17.0953 7.04425L17.095 7.04385L17.0891 7.03724C17.0455 6.98838 17.0014 6.94066 16.9577 6.89354L16.9575 6.89325L16.9542 6.88972C16.9521 6.8876 16.95 6.88533 16.9479 6.88307C16.9457 6.8808 16.9436 6.87853 16.9415 6.87642L16.9403 6.87521L16.9066 6.84004L16.8719 6.80387C16.8686 6.80055 16.8653 6.79708 16.862 6.7936C16.8586 6.79012 16.8553 6.78664 16.852 6.78331C16.8302 6.76034 16.8084 6.73859 16.786 6.71622L16.786 6.7162L16.7745 6.70471L16.7624 6.69274L16.7623 6.6927C16.7543 6.68479 16.7463 6.67688 16.7382 6.66844L16.7261 6.65665L16.714 6.64486L16.6786 6.611L16.6432 6.57714L16.6402 6.57412L16.639 6.57291C16.6184 6.55296 16.5966 6.53301 16.576 6.51427C16.5734 6.51163 16.5705 6.50899 16.5676 6.50636C16.5666 6.50537 16.5655 6.50437 16.5646 6.50338C16.5609 6.49976 16.5567 6.49613 16.5531 6.49311L16.5077 6.45139C16.5053 6.44897 16.5027 6.4467 16.5001 6.44444L16.5001 6.4444C16.4975 6.44214 16.495 6.43989 16.4925 6.43748C16.4856 6.43118 16.4786 6.42503 16.4715 6.41888L16.4714 6.41874C16.4643 6.41254 16.4572 6.40635 16.4502 6.4C16.4478 6.39819 16.4448 6.39577 16.4423 6.39335L16.4369 6.38852L16.4314 6.38368C16.4 6.35586 16.3685 6.32866 16.3364 6.30206C16.3283 6.29541 16.3203 6.2886 16.3122 6.2818C16.3082 6.27834 16.3041 6.27487 16.3 6.27143C16.296 6.26811 16.292 6.26481 16.288 6.26155L16.2614 6.23977L16.2348 6.21802L16.233 6.2162C16.2027 6.19142 16.1725 6.16723 16.1416 6.14365C16.1325 6.13579 16.1229 6.12854 16.1132 6.12128C16.0835 6.0977 16.0533 6.07473 16.0224 6.05236C16.0194 6.04994 16.017 6.04813 16.0139 6.04631C16 6.03543 15.9861 6.02455 15.9716 6.01427C15.9704 6.01306 15.9692 6.01185 15.9674 6.01125C15.9589 6.0046 15.9498 5.99795 15.9407 5.9919C15.9407 5.9913 15.9395 5.9913 15.9389 5.99069L15.9317 5.98547C15.914 5.97259 15.8959 5.95941 15.8778 5.94716C15.8669 5.9393 15.856 5.93144 15.8451 5.92419C15.8197 5.90605 15.7937 5.88852 15.7677 5.87098C15.7356 5.84922 15.7029 5.82745 15.6703 5.80629L15.6648 5.80266C15.6622 5.80083 15.6595 5.79905 15.6567 5.79729C15.6545 5.79584 15.6522 5.79442 15.65 5.79299C15.645 5.78982 15.64 5.78664 15.6352 5.78332L15.6013 5.76216L15.5904 5.7552L15.5795 5.74825L15.5541 5.73253L15.5287 5.71681L15.5033 5.7017L15.4779 5.68658L15.4778 5.68656C15.4458 5.66722 15.4137 5.64788 15.3811 5.62975C15.3671 5.62129 15.3526 5.61282 15.3381 5.60496C15.3115 5.58986 15.2849 5.57536 15.2583 5.56087L15.2582 5.56083C15.2534 5.55781 15.2486 5.55478 15.2431 5.55236C15.2086 5.53362 15.1735 5.51488 15.1384 5.49735L15.1197 5.48767L15.1196 5.48766C15.1039 5.4792 15.0882 5.47074 15.0719 5.46289L15.0235 5.43931C15.0041 5.42963 14.9847 5.41996 14.9648 5.41089L14.9481 5.40296C14.9342 5.39636 14.9203 5.38972 14.9061 5.38368C14.9 5.38006 14.8934 5.37703 14.8867 5.37401L14.7899 5.33048C14.7518 5.31355 14.7131 5.29723 14.6743 5.2809C14.635 5.26458 14.5957 5.24886 14.5564 5.23375L14.5564 5.23374C14.5316 5.22407 14.5067 5.2144 14.4813 5.20533C14.4493 5.19263 14.4166 5.18115 14.3839 5.16966C14.3785 5.16724 14.3724 5.16543 14.3664 5.16361C14.3585 5.16059 14.35 5.15757 14.3416 5.15454L14.3301 5.15092C14.3192 5.1473 14.309 5.14369 14.2987 5.14008L14.2986 5.14003C14.2874 5.1361 14.2761 5.13233 14.2647 5.12855C14.2534 5.12477 14.242 5.12099 14.2308 5.11706L14.2145 5.11162L14.2018 5.10769L14.1891 5.10376C14.1473 5.09046 14.1056 5.07776 14.0638 5.06567C14.0209 5.05297 13.9779 5.04088 13.935 5.02939C13.8799 5.01368 13.8248 4.99977 13.7692 4.98707C13.7141 4.97256 13.6579 4.95987 13.6016 4.94838C13.5459 4.93629 13.4896 4.92541 13.4328 4.91452C13.3765 4.90364 13.3196 4.89397 13.2621 4.8849C13.2095 4.87643 13.1563 4.86857 13.103 4.86192L13.0758 4.8583C13.0225 4.85104 12.9693 4.84499 12.9154 4.83955C12.8955 4.83714 12.8755 4.83532 12.8556 4.83351L12.8555 4.83351C12.7769 4.82565 12.6982 4.8196 12.6184 4.81477C12.4744 4.8063 12.3291 4.80146 12.1821 4.80146H12.1761C10.2623 4.80146 8.52514 5.53544 7.28417 6.86916C6.06316 8.18112 5.39094 9.99247 5.39094 11.9707C5.39094 13.9489 6.08796 15.6944 7.35314 17.0323C8.60138 18.3527 10.2502 19.0801 11.9958 19.0801C13.4086 19.0801 14.681 18.672 15.6739 17.8993C16.6335 17.1532 17.2664 16.0982 17.4564 14.9277L17.46 14.9036V14.5475H12.4163V10.8933H23.0677V10.8939ZM30.4072 10.894V14.5481H35.1491V14.9042L35.1455 14.9284C34.9555 16.0989 34.3226 17.1539 33.363 17.9C32.3701 18.6726 31.0976 19.0807 29.6848 19.0807C27.9392 19.0807 26.2904 18.3534 25.0422 17.033C24.3143 16.2633 23.7746 15.3419 23.4479 14.3311C23.0866 16.4731 22.2934 18.3383 21.1021 19.8377C21.1862 19.9229 21.2715 20.0063 21.3586 20.0886C23.5108 22.1236 26.4465 23.2445 29.6249 23.2445C36.4911 23.2445 40.7568 18.7639 40.7568 11.5518V10.894H30.4072ZM35.1441 7.47679L39.5059 5.20414C38.4126 3.66606 37.0276 2.47623 35.3843 1.66427C33.7252 0.844443 31.8483 0.428486 29.805 0.428486C26.5528 0.428486 23.5651 1.5627 21.3929 3.62132C21.3772 3.63644 21.3614 3.65155 21.3457 3.66606C21.2731 3.73559 21.2023 3.80572 21.1321 3.87707C21.0613 3.94901 20.9911 4.02217 20.9228 4.09593C19.7127 5.39519 18.848 6.97196 18.3749 8.71741C18.3404 8.84256 18.3083 8.96892 18.2787 9.09588C18.2478 9.22647 18.2188 9.35828 18.1928 9.49068C18.1401 9.75368 18.0959 10.0203 18.0602 10.2893H23.2498C23.5197 8.97799 24.109 7.79843 24.973 6.86978C26.2146 5.53606 27.9517 4.80209 29.8655 4.80209C31.9875 4.80209 33.7621 5.70172 35.1441 7.47679Z" fill="black"/>
<path fill-rule="evenodd" clip-rule="evenodd" d="M49.2158 14.0144C52.0692 12.376 55.0471 10.6662 55.0471 6.9277C55.0471 6.89837 55.0469 6.86912 55.0466 6.83994C55.1096 6.5566 55.1903 6.29014 55.2874 6.04047C56.0232 4.14733 57.6958 3.21976 59.672 3.21976C62.1838 3.21976 63.7388 4.7149 63.7388 6.92771C63.7388 9.55437 61.3804 10.9475 58.8443 12.4457C55.9741 14.1411 52.8763 15.9711 52.7115 19.8756H44.0728C44.0728 16.9675 46.5916 15.5212 49.2158 14.0144ZM52.7046 22.1782L41.4114 22.1781V20.2046C41.4114 16.0724 44.6015 14.188 47.5511 12.4456C50.0872 10.9475 52.4456 9.55436 52.4456 6.9277C52.4456 4.71489 50.8906 3.21975 48.3788 3.21975C45.7473 3.21975 43.6541 4.86441 43.5943 8.24343H40.9629C41.2021 3.45898 44.3419 0.917236 48.4087 0.917236C50.8864 0.917236 52.8382 1.84337 53.9671 3.39868C55.3173 1.76354 57.3553 0.917244 59.7019 0.917244C63.7089 0.917244 66.3403 3.33937 66.3403 6.92771C66.3403 10.6662 63.3624 12.3761 60.509 14.0144C57.8848 15.5212 55.366 16.9675 55.366 19.8756H66.0413V22.1782H52.7046Z" fill="black"/>
</svg>
